<?xml version="1.0" standalone="no"?>
<!DOCTYPE svg PUBLIC "-//W3C//DTD SVG 20010904//EN"
 "http://www.w3.org/TR/2001/REC-SVG-20010904/DTD/svg10.dtd">
<svg version="1.0" xmlns="http://www.w3.org/2000/svg"
 width="512.000000pt" height="512.000000pt" viewBox="0 0 512.000000 512.000000"
 preserveAspectRatio="xMidYMid meet">
<metadata>
Created by potrace 1.14, written by Peter Selinger 2001-2017
</metadata>
<g transform="translate(0.000000,512.000000) scale(0.100000,-0.100000)"
fill="#000000" stroke="none">
<path d="M2340 4981 c-107 -78 -230 -166 -272 -197 -91 -65 -98 -66 -308 -40
-19 2 -60 7 -90 10 -124 13 -166 18 -189 21 -13 3 -61 7 -107 11 -78 6 -84 5
-106 -17 -13 -13 -81 -154 -152 -314 -71 -159 -133 -296 -139 -303 -6 -7 -24
-19 -41 -27 -296 -128 -575 -259 -590 -277 -16 -20 -17 -33 -12 -93 4 -38 9
-92 11 -120 3 -27 7 -68 10 -90 2 -22 7 -67 10 -100 4 -33 10 -96 16 -140 20
-173 32 -142 -178 -432 -103 -142 -191 -270 -197 -285 -7 -20 -7 -37 0 -56 6
-15 90 -137 187 -270 97 -133 181 -251 188 -263 10 -20 7 -170 -6 -234 -2 -11
-7 -49 -10 -85 -8 -85 -15 -158 -20 -195 -2 -16 -7 -67 -11 -112 -6 -77 -5
-83 17 -105 13 -13 150 -79 304 -147 154 -69 291 -132 303 -141 16 -11 67
-112 158 -316 80 -179 143 -306 156 -318 20 -16 34 -17 111 -11 49 4 98 8 110
10 23 4 73 9 187 20 36 4 76 8 90 11 14 2 67 7 117 10 109 8 68 30 394 -207
123 -89 236 -167 252 -173 19 -7 35 -7 55 0 15 6 128 84 251 173 123 90 242
174 263 189 l40 26 146 -13 c81 -7 155 -15 164 -16 9 -2 52 -7 95 -10 43 -4
86 -9 96 -11 10 -1 56 -6 102 -10 79 -6 85 -5 107 17 13 13 81 155 152 314 71
160 136 297 145 307 9 9 43 28 76 42 226 94 533 239 549 258 18 23 19 63 1
218 -3 19 -7 60 -10 90 -3 30 -8 78 -11 105 -3 28 -7 61 -10 75 -2 14 -7 59
-10 100 -4 41 -8 82 -9 90 -5 33 0 41 275 415 93 127 120 170 120 194 0 14
-15 47 -33 72 -17 25 -52 75 -76 110 -25 35 -70 97 -101 139 -152 204 -181
248 -182 282 -2 33 8 155 17 213 4 29 10 83 20 190 5 50 8 83 20 186 11 93 0
105 -167 179 -79 34 -172 76 -208 93 -36 16 -105 47 -155 69 -49 22 -98 47
-107 56 -9 9 -37 64 -63 122 -26 58 -59 132 -74 165 -15 33 -54 120 -86 193
-68 156 -81 167 -174 158 -31 -4 -81 -9 -111 -12 -30 -3 -66 -7 -80 -9 -14 -3
-56 -7 -95 -10 -38 -3 -81 -8 -95 -10 -61 -9 -188 -19 -215 -17 -17 1 -59 24
-100 54 -341 250 -458 330 -487 334 -30 5 -52 -9 -228 -135z"/>
</g>
</svg>
